<svg width="57" height="167" viewBox="0 0 57 167" fill="none" xmlns="http://www.w3.org/2000/svg">
<g clip-path="url(#clip0_100_8300)">
<path d="M43.0275 137.317C42.8279 137.146 42.2452 136.645 41.3273 135.857C40.4246 135.061 39.1053 134.025 37.7165 132.62C37.0007 131.929 36.2184 131.175 35.3753 130.361C34.5768 129.494 33.7211 128.564 32.8128 127.578C32.5855 127.332 32.355 127.082 32.1214 126.828C31.8903 126.572 31.6794 126.293 31.4528 126.021C31.0055 125.473 30.5467 124.91 30.0768 124.334C29.8419 124.045 29.604 123.754 29.3636 123.459C29.1208 123.166 28.8778 122.868 28.6582 122.547C28.2046 121.916 27.7415 121.272 27.2693 120.615C27.0331 120.287 26.7946 119.956 26.5539 119.621C26.4337 119.454 26.3126 119.286 26.1912 119.117C26.0725 118.947 25.9669 118.766 25.8534 118.59C25.4061 117.881 24.9515 117.16 24.4894 116.427C24.2581 116.061 24.0251 115.691 23.7903 115.319C23.5461 114.953 23.3568 114.551 23.1349 114.164C22.7055 113.382 22.2702 112.59 21.8294 111.787C21.3662 110.995 20.9953 110.144 20.5896 109.299C20.1892 108.451 19.7845 107.593 19.3756 106.727C19.0182 105.838 18.657 104.941 18.2929 104.036C18.1105 103.583 17.9276 103.128 17.7437 102.672C17.5674 102.213 17.4244 101.739 17.2622 101.271C16.9461 100.33 16.6278 99.3828 16.3072 98.429C16.0111 97.468 15.7667 96.4841 15.491 95.5039C15.3568 95.0127 15.2219 94.5205 15.0869 94.0266C14.9482 93.5337 14.864 93.0263 14.7492 92.5252C14.5339 91.5191 14.3176 90.5089 14.1007 89.4954C13.9155 88.4757 13.7713 87.4445 13.6036 86.4151L13.3597 84.8678C13.2935 84.3493 13.2491 83.8276 13.1924 83.3069C13.0847 82.2648 12.9769 81.2212 12.869 80.177L12.7079 77.0305C12.6838 76.5061 12.6481 75.982 12.6331 75.4575L12.6316 73.8836C12.6352 72.8353 12.6196 71.7875 12.6381 70.7432C12.6882 69.6993 12.7377 68.6578 12.7874 67.6197C12.817 67.101 12.826 66.5818 12.8722 66.0661C12.9213 65.5504 12.9705 65.0357 13.0196 64.5223C13.121 63.4959 13.2071 62.4717 13.3199 61.4565C13.4635 60.4444 13.6064 59.4379 13.7486 58.4381C13.8199 57.938 13.891 57.4392 13.9615 56.9424C14.0542 56.4494 14.1469 55.9577 14.2389 55.4679C14.423 54.4883 14.6057 53.5161 14.7866 52.5521C16.3962 44.8676 18.734 37.9072 21.1062 32.1174C23.4824 26.3237 25.8679 21.6787 27.6643 18.5103C28.1088 17.7148 28.5057 17.0052 28.8506 16.3875C29.2016 15.7734 29.5273 15.2671 29.7772 14.8487C30.285 14.0159 30.5552 13.5724 30.5552 13.5724L29.6803 13.0284C29.6803 13.0284 29.4025 13.4747 28.8812 14.3123C28.6248 14.7335 28.2902 15.2425 27.9298 15.861C27.575 16.4826 27.1668 17.1973 26.7097 17.9978C26.4812 18.3983 26.2401 18.8201 25.9874 19.2625C25.8609 19.4839 25.7318 19.7103 25.5995 19.9417C25.4759 20.1778 25.3498 20.4191 25.221 20.6658C24.7069 21.6521 24.1503 22.7189 23.5559 23.8595C23.248 24.4248 22.9809 25.0332 22.6842 25.6486C22.3917 26.2665 22.0908 26.9024 21.7821 27.5548C21.1404 28.8495 20.5754 30.2607 19.9473 31.717C17.4964 37.563 15.057 44.5988 13.37 52.3941C13.177 53.3717 12.9823 54.358 12.786 55.3515C12.6908 55.8487 12.5837 56.3458 12.4969 56.8485C12.4206 57.3531 12.3439 57.8592 12.2669 58.367C12.1131 59.3827 11.9587 60.4051 11.8032 61.4329C11.6947 62.4669 11.586 63.5065 11.4764 64.5507C11.4219 65.073 11.3673 65.5962 11.3125 66.1206C11.2815 66.6468 11.2507 67.1741 11.22 67.7024C11.1599 68.7592 11.0996 69.8197 11.039 70.8823C11.03 71.9472 11.0213 73.0143 11.0121 74.083L11.003 75.6874L11.0703 77.2925C11.1198 78.3626 11.1505 79.4346 11.2164 80.5038C11.3166 81.5708 11.4173 82.6373 11.5173 83.7022C11.5753 84.2336 11.6001 84.7689 11.6856 85.2964L11.92 86.88L12.154 88.4599C12.239 88.9846 12.2924 89.5141 12.4119 90.0311C12.8487 92.1056 13.2085 94.1842 13.7906 96.1883C13.9235 96.6923 14.056 97.1951 14.1881 97.696C14.323 98.1964 14.4402 98.7005 14.6121 99.1866C14.9316 100.166 15.2487 101.14 15.5637 102.106C15.8553 103.08 16.2442 104.012 16.6071 104.944C16.9765 105.873 17.3241 106.802 17.7027 107.708C18.1144 108.599 18.5224 109.481 18.9259 110.354C19.1277 110.79 19.3285 111.224 19.5278 111.655C19.7297 112.085 19.9695 112.493 20.1869 112.909C21.0811 114.561 21.9087 116.197 22.883 117.683C23.35 118.439 23.8098 119.182 24.2619 119.913C24.7239 120.637 25.2343 121.311 25.7049 121.993C26.1829 122.67 26.6514 123.334 27.1107 123.984C27.5811 124.625 28.0869 125.218 28.5567 125.817C29.5147 126.999 30.3871 128.16 31.3346 129.151C32.2567 130.164 33.1121 131.129 33.9337 132.008C34.7969 132.854 35.5968 133.638 36.3279 134.355C36.6936 134.713 37.0422 135.054 37.3726 135.377C37.7013 135.705 38.0342 135.966 38.3351 136.237C38.9432 136.767 39.4736 137.229 39.9196 137.618C40.813 138.395 41.371 138.88 41.5443 139.031C52.5506 148.003 54.0593 159.133 51.9296 163.669C52.3312 165.287 55.0729 167.199 55.9989 166.986C59.37 162.853 58.3753 149.829 43.0275 137.317Z" fill="white"/>
<path d="M39.9853 -0.549865C39.5776 1.08801 39.1139 2.69315 38.5057 4.24588C37.9271 5.82138 37.2381 7.36995 36.294 8.84578C35.8372 9.59439 35.3461 10.3462 34.7701 11.0751C34.2034 11.8101 33.5388 12.5146 32.8377 13.2381C32.1405 13.9643 31.3596 14.679 30.4812 15.386C30.0448 15.7413 29.5723 16.0877 29.0948 16.4454C28.6232 16.8064 28.1257 17.1664 27.6003 17.526C27.6386 16.8882 27.6949 16.268 27.768 15.6648C27.8468 15.0653 27.9633 14.4951 28.0832 13.9353C28.3286 12.8184 28.6346 11.7695 28.9911 10.7852C29.3519 9.80339 29.81 8.91672 30.2826 8.07252C30.7646 7.23448 31.2739 6.44683 31.8401 5.73C33.0031 4.31797 34.2742 3.10635 35.6439 2.07633C37.0436 1.06851 38.5079 0.215498 39.9853 -0.549865Z" fill="white"/>
<path d="M40.0936 18.6373C39.593 19.194 39.0779 19.7408 38.5411 20.2704C38.0031 20.799 37.4406 21.3091 36.8899 21.8187C35.7743 22.8298 34.5123 23.7306 33.1251 24.5184C31.7558 25.3159 30.2051 25.9719 28.4089 26.4448C26.6282 26.9246 24.6487 27.2444 22.3295 27.3225C23.0145 26.2729 23.6816 25.3221 24.4007 24.4957C25.1298 23.6746 25.8609 22.9542 26.5935 22.3247C28.0332 21.0527 29.5933 20.2076 31.0891 19.6072C31.842 19.3097 32.592 19.0801 33.3389 18.9072C34.0936 18.7388 34.8613 18.6359 35.6146 18.5718C37.1258 18.4467 38.6187 18.4982 40.0936 18.6373Z" fill="white"/>
<path d="M20.9883 6.59668C20.6421 7.41405 20.3146 8.23557 20.0159 9.06153C19.7158 9.88684 19.4423 10.7147 19.2482 11.5724C18.8467 13.2789 18.5756 14.9884 18.6064 16.7438C18.6547 18.5088 18.9498 20.2875 19.5821 22.0717C20.2289 23.8639 21.2592 25.6839 22.6834 27.4862C23.0593 26.2984 23.3242 25.1539 23.56 24.0798C23.8057 23.0104 23.9733 21.9877 24.0727 21.0041C24.247 19.0235 24.2666 17.2638 24.0329 15.5833C23.921 14.7457 23.7585 13.9356 23.5548 13.1474C23.3587 12.3639 23.1376 11.6121 22.874 10.8716C22.3515 9.39292 21.6968 7.98087 20.9883 6.59668Z" fill="white"/>
<path d="M32.9347 31.7601C32.5024 32.3695 32.0487 32.9688 31.5814 33.5574C31.1376 34.1557 30.6697 34.7395 30.1699 35.304C29.6701 35.8685 29.1385 36.4139 28.5661 36.935C28.0089 37.4613 27.4335 37.9714 26.7958 38.4488C24.2131 40.3473 21.0374 41.8547 16.4352 42.6226C16.9843 41.4942 17.5549 40.4747 18.143 39.5558C18.4417 39.0979 18.7248 38.6587 19.0484 38.2559C19.3698 37.8522 19.6944 37.4722 20.0215 37.1148C21.334 35.686 22.6681 34.6099 24.1231 33.8444C25.5548 33.0695 27.0059 32.5661 28.4647 32.2433C29.9473 31.9305 31.4498 31.8025 32.9347 31.7601Z" fill="white"/>
<path d="M12.4673 22.2173C12.2186 23.0711 11.9837 23.9237 11.7872 24.7819C11.6136 25.6515 11.4694 26.5217 11.3658 27.3915C11.2622 28.2613 11.1988 29.1305 11.1873 29.9975C11.1901 30.8709 11.2663 31.7517 11.3923 32.6218C11.8637 36.0911 13.5285 39.5561 16.8082 42.7377C17.0327 41.5139 17.1786 40.356 17.2552 39.2544C17.298 38.7054 17.3042 38.1632 17.3296 37.6473C17.3533 37.1305 17.3596 36.6262 17.3505 36.1338C17.3168 34.1657 17.0076 32.375 16.6104 30.7566C16.1896 29.1286 15.5799 27.6314 14.8523 26.2173C14.1485 24.8145 13.3375 23.5016 12.4673 22.2173Z" fill="white"/>
<path d="M27.5447 45.607L27.273 46.0956L27.0182 46.5875C26.8459 46.9144 26.6684 47.2394 26.4842 47.5614C26.1165 48.2059 25.7225 48.8399 25.2948 49.4595C24.8517 50.0764 24.448 50.6929 23.966 51.2854C23.4913 51.8794 22.9729 52.4555 22.4013 53.0113C22.1174 53.2897 21.8123 53.5614 21.5072 53.8302C21.2088 54.1001 20.8958 54.3645 20.567 54.623C19.9097 55.1404 19.1887 55.6349 18.3962 56.1042C17.6066 56.5739 16.7313 57.0163 15.7998 57.4344C14.8793 57.8543 13.8768 58.2465 12.7823 58.6077C12.956 58.0067 13.1394 57.4323 13.332 56.883C13.5474 56.338 13.7754 55.8185 14.0085 55.3233C14.4761 54.333 14.9739 53.4405 15.4973 52.6372C16.6054 51.0422 17.8329 49.8061 19.1061 48.8375C20.4074 47.875 21.8125 47.1917 23.2184 46.6806C24.6391 46.1729 26.0521 45.8353 27.5447 45.607Z" fill="white"/>
<path d="M5.98633 38.8828L5.88031 39.5428L5.80561 40.2106C5.75905 40.6558 5.71823 41.1004 5.68494 41.5439C5.61864 42.4313 5.58147 43.3151 5.58501 44.193C5.5738 45.0655 5.67464 45.9553 5.7931 46.824C5.91836 47.695 6.09497 48.5558 6.33251 49.4022C6.45304 49.8259 6.58113 50.2438 6.74029 50.6617C6.90592 51.081 7.08775 51.4964 7.28771 51.9064C7.68745 52.7274 8.1581 53.5287 8.71061 54.3064C9.26635 55.0849 9.8902 55.8367 10.6306 56.565C11.3821 57.2957 12.2246 57.9973 13.1678 58.6663C13.1737 58.0423 13.1632 57.4374 13.1374 56.85C13.1341 56.2667 13.1189 55.7015 13.0859 55.1523C13.021 54.0543 12.8944 53.0207 12.714 52.0422C12.4141 50.0993 11.9161 48.3802 11.2396 46.8114C10.5907 45.2502 9.82048 43.8568 8.91546 42.5513C8.02519 41.2512 6.99175 40.0341 5.98633 38.8828Z" fill="white"/>
<path d="M24.1967 59.9284C23.9596 60.6201 23.7051 61.3086 23.4234 61.9912L22.9889 63.0108C22.8515 63.3494 22.706 63.6867 22.5516 64.0215C22.2425 64.6913 21.8966 65.3531 21.5044 66.0048C21.3098 66.3308 21.0969 66.6542 20.8839 66.9752C20.681 67.2962 20.4652 67.6149 20.2356 67.9304C19.7761 68.5622 19.2602 69.1833 18.6789 69.7932C18.1047 70.4032 17.4314 71.0017 16.7558 71.5878C15.3741 72.7604 13.6882 73.8881 11.6241 74.9617C11.7976 73.7184 12.0252 72.5735 12.3003 71.5214C12.4273 70.9951 12.6097 70.493 12.7943 70.0127C12.9789 69.5324 13.1737 69.0743 13.378 68.6373C13.7902 67.7634 14.225 66.9734 14.7208 66.2603C15.2361 65.5484 15.781 64.9111 16.3501 64.339C18.5878 62.0484 21.3933 60.8103 24.1967 59.9284Z" fill="white"/>
<path d="M1.88574 56.437C1.8884 57.3423 1.90983 58.2434 1.96045 59.1362C1.98994 59.5836 2.00907 60.025 2.06889 60.4704C2.12791 60.9156 2.19533 61.3581 2.27245 61.7975C2.42691 62.676 2.62002 63.5412 2.86235 64.3881C2.98496 64.8116 3.11335 65.2298 3.26712 65.6437C3.43133 66.0595 3.60892 66.4695 3.8009 66.8735C4.18508 67.6813 4.62724 68.4637 5.1373 69.215C5.65447 69.9663 6.20642 70.6843 6.90764 71.3687C8.28014 72.7356 9.95752 73.9477 12.0141 74.9567C11.8494 73.7238 11.6299 72.5763 11.3625 71.5015C11.2283 70.9663 11.0981 70.4483 10.9718 69.9444C10.8386 69.443 10.6932 68.9584 10.5362 68.4892C10.2262 67.5512 9.85486 66.6737 9.47312 65.8512C9.11104 65.0304 8.70665 64.262 8.2672 63.5373C6.4707 60.6301 4.28843 58.4511 1.88574 56.437Z" fill="white"/>
<path d="M23.1125 74.3906L22.8952 75.4579C22.8357 75.8117 22.7704 76.1656 22.6979 76.5194C22.5533 77.2267 22.3804 77.933 22.1702 78.6386C22.0692 78.9906 21.9413 79.345 21.8347 79.6944C21.7291 80.0437 21.6131 80.393 21.4848 80.742C21.2287 81.4402 20.9248 82.1377 20.5642 82.8362C20.3839 83.1852 20.1894 83.5346 19.9793 83.8843C19.7838 84.2314 19.5795 84.5776 19.355 84.925C18.9077 85.6197 18.3927 86.3171 17.8022 87.018C17.2156 87.7182 16.5355 88.4258 15.8024 89.1323C15.0819 89.8361 14.2749 90.5459 13.3719 91.262C13.3279 90.6378 13.3021 90.0352 13.2937 89.454C13.3122 88.868 13.3539 88.3022 13.4072 87.7579C13.5159 86.6691 13.6858 85.6641 13.9102 84.7369C14.4488 82.8699 15.1994 81.3132 16.0905 80.002C17.0443 78.6842 18.1429 77.6086 19.3201 76.6998C19.9093 76.2455 20.5196 75.8327 21.1445 75.4518C21.7835 75.0701 22.447 74.7187 23.1125 74.3906Z" fill="white"/>
<path d="M0.530559 74.6098C0.599407 75.0611 0.662438 75.5096 0.750355 75.9569C0.84729 76.4048 0.949682 76.8496 1.0594 77.2912C1.27832 78.1745 1.52479 79.0439 1.80736 79.8931C1.95299 80.3177 2.09022 80.7373 2.26944 81.1505C2.44999 81.5639 2.64095 81.9709 2.84308 82.3712C3.24706 83.1717 3.69608 83.944 4.19829 84.6802C4.44925 85.0482 4.71377 85.4072 4.99256 85.7564C5.28594 86.104 5.60066 86.4413 5.92634 86.7675C6.57978 87.4196 7.29346 88.0272 8.07594 88.5815C8.86253 89.1348 9.69985 89.6382 10.6456 90.0742C11.6044 90.5084 12.6379 90.8807 13.7539 91.1841C13.5445 90.5962 13.326 90.032 13.0993 89.4893C12.8993 88.9416 12.6966 88.4141 12.4808 87.9075C12.0512 86.894 11.5849 85.9595 11.0865 85.0931C10.1795 83.3497 9.13873 81.8767 7.98881 80.5938C6.90207 79.3084 5.71038 78.2151 4.44273 77.2419C3.80928 76.7551 3.15859 76.2982 2.49581 75.8621C1.84731 75.4266 1.19573 75.0125 0.530559 74.6098Z" fill="white"/>
<path d="M24.5459 88.5855C24.5814 90.0003 24.4797 91.4499 24.4048 92.8735C24.3034 94.3052 23.9891 95.7851 23.621 97.2583C23.4187 98.0013 23.1602 98.7573 22.8374 99.5297C22.6761 99.9157 22.4987 100.306 22.3041 100.701C22.1135 101.094 21.9298 101.483 21.714 101.882C20.864 103.473 19.7186 105.146 18.2089 106.925C17.9062 105.705 17.6906 104.558 17.5546 103.48C17.5205 103.21 17.4915 102.945 17.4672 102.684C17.4466 102.422 17.4484 102.157 17.4449 101.901C17.4426 101.386 17.4578 100.889 17.4894 100.409C17.5532 99.4477 17.6835 98.5533 17.8716 97.7194C18.0965 96.8743 18.3855 96.0873 18.7154 95.3561C19.0466 94.6245 19.4238 93.9466 19.8388 93.3144C20.0475 92.9981 20.2609 92.6947 20.4911 92.3988C20.7301 92.1009 20.9775 91.8133 21.2309 91.5353C22.2466 90.4236 23.3722 89.4619 24.5459 88.5855Z" fill="white"/>
<path d="M2.39173 92.9627C3.04107 94.702 3.69159 96.4088 4.65157 97.9722C5.58351 99.5395 6.5796 101.013 7.92849 102.254C8.58369 102.879 9.28387 103.458 10.0348 103.979C10.4102 104.24 10.7985 104.486 11.2001 104.717C11.6059 104.946 12.0491 105.152 12.4926 105.345C14.28 106.115 16.2891 106.616 18.5677 106.772C17.9564 105.691 17.3256 104.708 16.6768 103.809C16.5144 103.585 16.3512 103.365 16.1867 103.151C16.0309 102.934 15.8773 102.72 15.726 102.51C15.4196 102.091 15.1078 101.692 14.7908 101.311C14.157 100.549 13.5024 99.8598 12.8301 99.2314C12.1945 98.5924 11.5474 98.0123 10.8772 97.4855C10.2083 96.9584 9.52096 96.4827 8.81992 96.0483C8.47033 95.8312 8.11237 95.6249 7.76018 95.4262C7.41651 95.2258 7.06956 95.0348 6.7192 94.8514C5.31766 94.1198 3.86477 93.5175 2.39173 92.9627Z" fill="white"/>
<path d="M28.6294 102.051C28.7388 102.755 28.9199 103.428 29.0436 104.126C29.1726 104.821 29.2758 105.527 29.3437 106.248C29.3928 106.979 29.4972 107.678 29.5205 108.417C29.5512 109.151 29.5382 109.904 29.4736 110.682C29.4443 111.069 29.3893 111.47 29.3443 111.864C29.3041 112.255 29.2496 112.653 29.18 113.058C29.0412 113.869 28.8422 114.71 28.5757 115.586C28.3137 116.459 27.9661 117.379 27.5759 118.317C27.1966 119.248 26.7404 120.22 26.1997 121.237C25.9087 120.683 25.6438 120.141 25.403 119.612C25.1862 119.068 25.002 118.53 24.8356 118.01C24.5046 116.967 24.2638 115.977 24.104 115.039C23.8554 113.119 23.9574 111.388 24.2685 109.844C24.62 108.278 25.2504 106.86 25.9909 105.584C26.7419 104.304 27.6145 103.157 28.6294 102.051Z" fill="white"/>
<path d="M7.80785 110.794C8.25488 111.606 8.80615 112.367 9.34602 113.116C9.89146 113.863 10.4568 114.586 11.0481 115.274C11.6202 115.972 12.3086 116.591 12.9889 117.184C13.677 117.773 14.3953 118.317 15.1477 118.806C15.527 119.049 15.9017 119.285 16.3095 119.492C16.7217 119.696 17.1424 119.885 17.5728 120.058C18.4335 120.403 19.3314 120.681 20.2701 120.883C21.2133 121.081 22.1795 121.214 23.223 121.237C24.2769 121.253 25.3742 121.181 26.5193 121.013C26.0916 120.559 25.6654 120.129 25.2394 119.722C24.8373 119.3 24.4441 118.895 24.045 118.515C23.2497 117.754 22.4513 117.08 21.6499 116.479C20.1182 115.238 18.598 114.274 17.0324 113.534C15.5073 112.773 14.0074 112.2 12.4538 111.777C10.9101 111.348 9.32524 111.063 7.80785 110.794Z" fill="white"/>
</g>
<defs>
<clipPath id="clip0_100_8300">
<rect width="57" height="167" fill="white"/>
</clipPath>
</defs>
</svg>
